#!OML:ASF F:\VICON\USERDATA\INSTALL\Justin_Nancy\Justin_Nancy.ASF
:FULLY-SPECIFIED
:DEGREES
212
root -8.75336 17.2925 -1.9019 2.48954 -4.86878 -3.40399
lowerback 4.65213 1.91124 2.72692
upperback -0.321542 2.75959 2.04804
thorax -2.91162 1.34687 0.385575
lowerneck -18.7317 -4.06495 -9.03935
upperneck 21.16 -4.05835 4.37167
head 10.1312 -2.09657 2.46471
rclavicle 1.90336e-014 1.90833e-014
rhumerus -25.0834 -9.50901 -82.0851
rradius 35.6829
rwrist 3.61777
rhand -14.1689 9.36904
rfingers 7.12502
rthumb 11.9663 -20.2689
lclavicle 1.90336e-014 1.90833e-014
lhumerus -33.3055 20.2674 80.3433
lradius 20.6347
lwrist -15.2491
lhand -17.5895 21.5993
lfingers 7.12502
lthumb 8.66646 51.4014
rfemur 11.3203 4.97996 30.3288
rtibia 16.1038
rfoot -13.8442 -6.23014
rtoes -8.60413
lfemur -28.8022 -3.64131 -16.8983
ltibia 21.2696
lfoot -4.89285 0.157758
ltoes -12.2381
213
root -8.73093 17.311 -1.73713 2.57078 -5.11575 -3.01734
lowerback 4.29704 1.96173 2.43401
upperback -0.296871 2.7923 1.92247
thorax -2.69365 1.36936 0.431308
lowerneck -18.5533 -3.93491 -9.24738
upperneck 20.9368 -3.90308 4.67836
head 10.0169 -2.00546 2.63101
rclavicle 3.18552e-014 3.97569e-016
rhumerus -24.8012 -9.95458 -82.0681
rradius 34.7003
rwrist 4.31176
rhand -13.7417 8.25824
rfingers 7.12502
rthumb 12.3781 -21.3553
lclavicle 3.18552e-014 3.97569e-016
lhumerus -33.5586 20.0401 80.4548
lradius 21.2227
lwrist -14.4311
lhand -18.1625 21.2104
lfingers 7.12502
lthumb 8.1135 51.0346
rfemur 11.0218 4.89936 29.6491
rtibia 17.4596
rfoot -13.7562 -5.67226
rtoes -9.4796
lfemur -28.4653 -3.81626 -17.3805
ltibia 21.2727
lfoot -2.35856 -0.488438
ltoes -10.9899
214
root -8.71234 17.3342 -1.57559 2.65015 -5.31504 -2.66599
lowerback 4.0578 1.96512 2.11182
upperback -0.430174 2.7737 1.83098
thorax -2.70727 1.36382 0.524295
lowerneck -18.3197 -3.82593 -9.43268
upperneck 21.101 -3.78595 4.926
head 10.0317 -1.94302 2.77103
rclavicle 2.71093e-014 1.43125e-014
rhumerus -24.8094 -10.3076 -82.0185
rradius 33.6111
rwrist 4.61745
rhand -13.6229 8.01282
rfingers 7.12502
rthumb 12.4927 -21.5938
lclavicle 2.71093e-014 1.43125e-014
lhumerus -34.1771 20.1313 80.316
lradius 21.702
lwrist -13.9466
lhand -17.8392 21.9758
lfingers 7.12502
lthumb 8.42552 51.7878
rfemur 10.6502 4.95729 29.072
rtibia 18.973
rfoot -13.4376 -5.20056
rtoes -9.67867
lfemur -28.2138 -3.39074 -17.9986
ltibia 21.28
lfoot -0.0422778 -1.38643
ltoes -7.32624
215
root -8.69786 17.3574 -1.42178 2.6163 -5.44951 -2.45069
lowerback 4.16405 1.92657 1.86066
upperback -0.710419 2.72019 1.78279
thorax -3.06543 1.3373 0.608597
lowerneck -18.1487 -3.76147 -9.33466
upperneck 21.7066 -3.74085 4.85254
head 10.2098 -1.93345 2.74378
rclavicle -9.90196e-015 -1.35174e-014
rhumerus -25.1324 -10.7842 -81.9517
rradius 32.6009
rwrist 5.29069
rhand -13.6743 8.7797
rfingers 7.12502
rthumb 12.4432 -20.8299
lclavicle -9.90196e-015 -1.35174e-014
lhumerus -34.9696 20.5993 79.8173
lradius 21.7767
lwrist -13.9561
lhand -17.6596 22.0861
lfingers 7.12502
lthumb 8.59887 51.8909
rfemur 10.2099 4.95163 28.6661
rtibia 20.734
rfoot -13.0027 -4.66035
rtoes -10.4702
lfemur -27.7955 -2.88858 -18.525
ltibia 21.2336
lfoot 0.629807 -2.10971
ltoes -3.81356
216
root -8.68318 17.3799 -1.26395 2.38667 -5.62216 -2.0207
lowerback 4.27641 1.92857 1.44064
upperback -0.785022 2.70144 1.63598
thorax -3.21761 1.33318 0.687695
lowerneck -18.042 -3.72955 -9.15892
upperneck 22.0433 -3.73286 4.71337
head 10.3039 -1.93749 2.6707
rclavicle -4.73356e-015 2.06736e-014
rhumerus -25.3572 -11.28 -81.928
rradius 31.9083
rwrist 6.38708
rhand -13.7389 9.929
rfingers 7.12502
rthumb 12.3808 -19.6844
lclavicle -4.73356e-015 2.06736e-014
lhumerus -35.527 20.3048 79.7368
lradius 22.1505
lwrist -12.7185
lhand -18.2252 21.2879
lfingers 7.12502
lthumb 8.05303 51.1144
rfemur 9.79613 4.87319 28.0037
rtibia 22.6878
rfoot -12.4004 -4.17814
rtoes -12.4588
lfemur -27.0875 -2.10098 -19.4007
ltibia 21.1967
lfoot 0.34639 -2.87723
ltoes -5.25568
217
root -8.66983 17.4005 -1.09951 2.10848 -5.87735 -1.606
lowerback 4.30211 1.98478 1.00081
upperback -0.730937 2.74857 1.52276
thorax -3.19122 1.36402 0.813641
lowerneck -18.2507 -3.70838 -9.26926
upperneck 22.3923 -3.67821 4.78952
head 10.4697 -1.91495 2.72739
rclavicle -1.66234e-014 1.39149e-014
rhumerus -25.5344 -11.9827 -81.8104
rradius 31.4215
rwrist 7.69905
rhand -13.8144 10.7897
rfingers 7.12502
rthumb 12.3081 -18.8281
lclavicle -1.66234e-014 1.39149e-014
lhumerus -35.8799 19.9737 79.8404
lradius 22.5521
lwrist -11.4238
lhand -18.5657 20.4592
lfingers 7.12502
lthumb 7.72434 50.2981
rfemur 9.28711 4.64565 27.2398
rtibia 24.8452
rfoot -11.7058 -3.35226
rtoes -13.4097
lfemur -26.2296 -1.29333 -20.2087
ltibia 21.1612
lfoot 0.371253 -2.99433
ltoes -6.2898
218
root -8.65743 17.4245 -0.940694 1.83715 -5.79792 -1.23376
lowerback 4.40764 1.87837 0.636838
upperback -0.692713 2.58588 1.45484
thorax -3.22256 1.289 0.95558
lowerneck -18.4442 -3.63539 -9.43571
upperneck 22.6233 -3.53136 4.86537
head 10.584 -1.854 2.80627
rclavicle -2.23384e-014 -5.96354e-015
rhumerus -25.5787 -12.5857 -81.7028
rradius 30.7231
rwrist 8.87565
rhand -13.7106 10.9731
rfingers 7.12502
rthumb 12.4081 -18.6386
lclavicle -2.23384e-014 -5.96354e-015
lhumerus -36.0717 20.2761 79.6975
lradius 22.6444
lwrist -10.6835
lhand -18.3007 20.9152
lfingers 7.12502
lthumb 7.98007 50.7446
rfemur 8.63213 4.17591 26.5204
rtibia 27.2481
rfoot -10.8633 -2.35934
rtoes -13.1291
lfemur -25.3578 -0.647634 -20.9696
ltibia 21.0525
lfoot 0.718085 -3.18107
ltoes -5.01322
219
root -8.64429 17.4453 -0.792871 1.59951 -5.39499 -0.719881
lowerback 4.65843 1.70143 0.236994
upperback -0.755035 2.32509 1.25744
thorax -3.43199 1.16462 0.985962
lowerneck -18.3018 -3.60653 -9.35997
upperneck 22.5515 -3.5142 4.81714
head 10.5267 -1.84629 2.7786
rclavicle -1.01504e-014 -3.97569e-016
rhumerus -25.7406 -13.5095 -81.6094
rradius 29.9746
rwrist 10.1469
rhand -13.663 11.3306
rfingers 7.12502
rthumb 12.454 -18.2784
lclavicle -1.01504e-014 -3.97569e-016
lhumerus -36.3323 20.4699 79.4167
lradius 22.7222
lwrist -10.0549
lhand -18.0503 22.5755
lfingers 7.12502
lthumb 8.22175 52.3955
rfemur 7.75649 3.52887 25.6433
rtibia 29.8446
rfoot -9.62021 -1.21724
rtoes -11.3041
lfemur -24.5788 -0.392891 -21.8308
ltibia 20.9391
lfoot 0.768149 -4.01815
ltoes -3.13952
220
root -8.63128 17.4673 -0.648484 1.40142 -4.95665 -0.201375
lowerback 5.02441 1.5391 -0.202008
upperback -0.985208 2.07999 1.0576
thorax -3.88033 1.05047 1.03099
lowerneck -17.8822 -3.57853 -9.34861
upperneck 22.4964 -3.53666 4.87897
head 10.4293 -1.85299 2.79783
rclavicle -4.47266e-015 1.98785e-015
rhumerus -26.4974 -14.2643 -81.4445
rradius 29.758
rwrist 10.8248
rhand -13.5046 10.8215
rfingers 7.12502
rthumb 12.6067 -18.7781
lclavicle -4.47266e-015 1.98785e-015
lhumerus -36.9018 20.7506 78.9566
lradius 22.496
lwrist -10.3413
lhand -18.3586 22.6967
lfingers 7.12502
lthumb 7.9242 52.5282
rfemur 6.7029 2.79787 24.7096
rtibia 32.5767
rfoot -7.89156 -0.142983
rtoes -10.2118
lfemur -23.8716 -0.294538 -22.6682
ltibia 20.8319
lfoot 0.472899 -5.49387
ltoes -1.64922
221
root -8.61646 17.4826 -0.505891 1.21123 -4.62907 0.114713
lowerback 5.18741 1.40443 -0.498338
upperback -1.04669 1.87821 0.962906
thorax -4.03818 0.956425 1.11148
lowerneck -17.5257 -3.58123 -9.21486
upperneck 22.3231 -3.57041 4.71887
head 10.296 -1.87816 2.71295
rclavicle 2.36926e-014 5.96354e-015
rhumerus -27.0914 -14.8684 -81.3002
rradius 29.6353
rwrist 10.847
rhand -13.5747 9.7616
rfingers 7.12502
rthumb 12.5392 -19.8421
lclavicle 2.36926e-014 5.96354e-015
lhumerus -37.0163 21.5484 78.3939
lradius 21.8617
lwrist -11.0418
lhand -18.3236 22.6779
lfingers 7.12502
lthumb 7.95803 52.5081
rfemur 5.54597 2.15144 23.973
rtibia 35.3928
rfoot -5.74476 0.879214
rtoes -9.07709
lfemur -23.1554 -0.279952 -23.2249
ltibia 20.6704
lfoot 0.473912 -6.69298
ltoes 0.347719
222
root -8.6028 17.493 -0.358854 0.871853 -4.44798 0.299064
lowerback 5.19588 1.33956 -0.633405
upperback -0.738837 1.77928 0.928399
thorax -3.72464 0.907583 1.16401
lowerneck -17.6753 -3.68409 -9.26601
upperneck 22.0184 -3.66739 4.68148
head 10.2228 -1.92528 2.68894
rclavicle 6.8208e-015 2.0276e-014
rhumerus -27.0356 -15.9233 -81.0166
rradius 29.1866
rwrist 11.5901
rhand -14.032 9.56241
rfingers 7.12502
rthumb 12.0983 -20.0678
lclavicle 6.8208e-015 2.0276e-014
lhumerus -36.6721 21.5987 78.5085
lradius 21.8321
lwrist -10.6936
lhand -17.76 23.6183
lfingers 7.12502
lthumb 8.50194 53.4271
rfemur 4.47114 1.6373 23.3639
rtibia 38.1761
rfoot -3.42484 1.89814
rtoes -6.49824
lfemur -22.3029 -0.180975 -23.611
ltibia 20.6563
lfoot 0.743885 -7.19239
ltoes 2.11124
223
root -8.58885 17.5123 -0.212797 0.663911 -4.32251 0.611757
lowerback 5.18688 1.27181 -0.870327
upperback -0.550314 1.66966 0.841685
thorax -3.52589 0.85526 1.21925
lowerneck -17.8435 -3.75895 -9.36518
upperneck 21.8708 -3.72917 4.70736
head 10.2093 -1.95482 2.70253
rclavicle -1.97542e-015 1.31198e-014
rhumerus -27.0753 -16.7176 -80.8255
rradius 28.7469
rwrist 12.0006
rhand -13.4972 9.03711
rfingers 7.12502
rthumb 12.6139 -20.562
lclavicle -1.97542e-015 1.31198e-014
lhumerus -36.4054 21.5528 78.5962
lradius 21.6765
lwrist -11.0159
lhand -17.3646 24.147
lfingers 7.12502
lthumb 8.88352 53.94
rfemur 3.13951 1.28098 22.5995
rtibia 40.9024
rfoot -0.972994 2.88265
rtoes -3.4735
lfemur -21.6071 0.0452664 -24.1732
ltibia 20.7275
lfoot 0.804471 -7.4689
ltoes 3.66035
224
root -8.56811 17.5231 -0.0657706 0.542896 -4.36341 0.82885
lowerback 5.03511 1.26928 -0.96076
upperback -0.418029 1.65868 0.769142
thorax -3.30388 0.849105 1.20112
lowerneck -17.8604 -3.76448 -9.40958
upperneck 21.7763 -3.71363 4.68375
head 10.178 -1.95257 2.70236
rclavicle 3.27995e-015 1.59028e-015
rhumerus -27.2469 -17.2584 -80.7023
rradius 28.3119
rwrist 11.4337
rhand -12.9951 8.81923
rfingers 7.12502
rthumb 13.0979 -20.7495
lclavicle 3.27995e-015 1.59028e-015
lhumerus -36.111 21.6844 78.6489
lradius 21.2773
lwrist -11.7802
lhand -17.7012 23.3945
lfingers 7.12502
lthumb 8.55872 53.2011
rfemur 1.73468 1.09963 21.9103
rtibia 43.5494
rfoot 1.22185 4.04603
rtoes -1.21735
lfemur -20.9303 0.175576 -24.5979
ltibia 20.7566
lfoot 0.657985 -7.65272
ltoes 5.31035
